<svg width="325" height="409" viewBox="0 0 325 409" fill="none" xmlns="http://www.w3.org/2000/svg">
<path d="M324.764 1.91602L323 1.91602V0.116015L324.764 0.116015V1.91602Z" fill="#78350F"/>
<path d="M324.764 20.3955H323V18.5955H324.764V20.3955Z" fill="#78350F"/>
<path d="M324.764 38.8751H323V37.0751H324.764V38.8751Z" fill="#78350F"/>
<path d="M324.764 57.3546H323V55.5546H324.764V57.3546Z" fill="#78350F"/>
<path d="M324.764 75.8341H323V74.0341H324.764V75.8341Z" fill="#78350F"/>
<path d="M324.764 94.3137H323V92.5137H324.764V94.3137Z" fill="#78350F"/>
<path d="M324.764 112.793H323V110.993H324.764V112.793Z" fill="#78350F"/>
<path d="M324.764 131.273H323V129.473H324.764V131.273Z" fill="#78350F"/>
<path d="M324.764 149.752H323V147.952H324.764V149.752Z" fill="#78350F"/>
<path d="M324.764 168.232H323V166.432H324.764V168.232Z" fill="#78350F"/>
<path d="M324.764 186.711H323V184.911H324.764V186.711Z" fill="#78350F"/>
<path d="M324.764 205.191H323V203.391H324.764V205.191Z" fill="#78350F"/>
<path d="M324.764 223.67H323V221.87H324.764V223.67Z" fill="#78350F"/>
<path d="M324.764 242.15H323V240.35H324.764V242.15Z" fill="#78350F"/>
<path d="M324.764 260.629H323V258.829H324.764V260.629Z" fill="#78350F"/>
<path d="M324.764 279.109H323V277.309H324.764V279.109Z" fill="#78350F"/>
<path d="M324.764 297.589H323V295.788H324.764V297.589Z" fill="#78350F"/>
<path d="M324.764 316.068H323V314.268H324.764V316.068Z" fill="#78350F"/>
<path d="M324.764 334.548H323V332.748H324.764V334.548Z" fill="#78350F"/>
<path d="M324.764 353.027H323V351.227H324.764V353.027Z" fill="#78350F"/>
<path d="M324.764 371.507H323V369.707H324.764V371.507Z" fill="#78350F"/>
<path d="M324.764 389.986H323V388.186H324.764V389.986Z" fill="#78350F"/>
<path d="M324.764 408.466H323V406.666H324.764V408.466Z" fill="#78350F"/>
<path d="M305.764 1.91601H304V0.116014L305.764 0.116014V1.91601Z" fill="#78350F"/>
<path d="M305.764 20.3955H304V18.5955H305.764V20.3955Z" fill="#78350F"/>
<path d="M305.764 38.8751H304V37.0751L305.764 37.0751V38.8751Z" fill="#78350F"/>
<path d="M305.764 57.3546H304V55.5546L305.764 55.5546V57.3546Z" fill="#78350F"/>
<path d="M305.764 75.8341H304V74.0341H305.764V75.8341Z" fill="#78350F"/>
<path d="M305.764 94.3137H304V92.5137H305.764V94.3137Z" fill="#78350F"/>
<path d="M305.764 112.793H304V110.993H305.764V112.793Z" fill="#78350F"/>
<path d="M305.764 131.273H304V129.473H305.764V131.273Z" fill="#78350F"/>
<path d="M305.764 149.752H304V147.952H305.764V149.752Z" fill="#78350F"/>
<path d="M305.764 168.232H304V166.432H305.764V168.232Z" fill="#78350F"/>
<path d="M305.764 186.711H304V184.911H305.764V186.711Z" fill="#78350F"/>
<path d="M305.764 205.191H304V203.391H305.764V205.191Z" fill="#78350F"/>
<path d="M305.764 223.67H304V221.87H305.764V223.67Z" fill="#78350F"/>
<path d="M305.764 242.15H304V240.35H305.764V242.15Z" fill="#78350F"/>
<path d="M305.764 260.629H304V258.829H305.764V260.629Z" fill="#78350F"/>
<path d="M305.764 279.109H304V277.309H305.764V279.109Z" fill="#78350F"/>
<path d="M305.764 297.589H304V295.788H305.764V297.589Z" fill="#78350F"/>
<path d="M305.764 316.068H304V314.268H305.764V316.068Z" fill="#78350F"/>
<path d="M305.764 334.548H304V332.748H305.764V334.548Z" fill="#78350F"/>
<path d="M305.764 353.027H304V351.227H305.764V353.027Z" fill="#78350F"/>
<path d="M305.764 371.507H304V369.707H305.764V371.507Z" fill="#78350F"/>
<path d="M305.764 389.986H304V388.186H305.764V389.986Z" fill="#78350F"/>
<path d="M305.764 408.466H304V406.666H305.764V408.466Z" fill="#78350F"/>
<path d="M286.764 1.91601H285V0.116014L286.764 0.116014V1.91601Z" fill="#78350F"/>
<path d="M286.764 20.3955H285V18.5955H286.764V20.3955Z" fill="#78350F"/>
<path d="M286.764 38.8751H285V37.0751H286.764V38.8751Z" fill="#78350F"/>
<path d="M286.764 57.3546H285V55.5546H286.764V57.3546Z" fill="#78350F"/>
<path d="M286.764 75.8341H285V74.0341H286.764V75.8341Z" fill="#78350F"/>
<path d="M286.764 94.3137H285V92.5137H286.764V94.3137Z" fill="#78350F"/>
<path d="M286.764 112.793H285V110.993H286.764V112.793Z" fill="#78350F"/>
<path d="M286.764 131.273H285V129.473H286.764V131.273Z" fill="#78350F"/>
<path d="M286.764 149.752H285V147.952H286.764V149.752Z" fill="#78350F"/>
<path d="M286.764 168.232H285V166.432H286.764V168.232Z" fill="#78350F"/>
<path d="M286.764 186.711H285V184.911H286.764V186.711Z" fill="#78350F"/>
<path d="M286.764 205.191H285V203.391H286.764V205.191Z" fill="#78350F"/>
<path d="M286.764 223.67H285V221.87H286.764V223.67Z" fill="#78350F"/>
<path d="M286.764 242.15H285V240.35H286.764V242.15Z" fill="#78350F"/>
<path d="M286.764 260.629H285V258.829H286.764V260.629Z" fill="#78350F"/>
<path d="M286.764 279.109H285V277.309H286.764V279.109Z" fill="#78350F"/>
<path d="M286.764 297.589H285V295.788H286.764V297.589Z" fill="#78350F"/>
<path d="M286.764 316.068H285V314.268H286.764V316.068Z" fill="#78350F"/>
<path d="M286.764 334.548H285V332.748H286.764V334.548Z" fill="#78350F"/>
<path d="M286.764 353.027H285V351.227H286.764V353.027Z" fill="#78350F"/>
<path d="M286.764 371.507H285V369.707H286.764V371.507Z" fill="#78350F"/>
<path d="M286.764 389.986H285V388.186H286.764V389.986Z" fill="#78350F"/>
<path d="M286.764 408.466H285V406.666H286.764V408.466Z" fill="#78350F"/>
<path d="M267.764 1.91601H266V0.116013L267.764 0.116013V1.91601Z" fill="#78350F"/>
<path d="M267.764 20.3955L266 20.3955V18.5955H267.764V20.3955Z" fill="#78350F"/>
<path d="M267.764 38.8751H266V37.0751H267.764V38.8751Z" fill="#78350F"/>
<path d="M267.764 57.3546H266V55.5546H267.764V57.3546Z" fill="#78350F"/>
<path d="M267.764 75.8341H266V74.0341H267.764V75.8341Z" fill="#78350F"/>
<path d="M267.764 94.3137H266V92.5137H267.764V94.3137Z" fill="#78350F"/>
<path d="M267.764 112.793H266V110.993H267.764V112.793Z" fill="#78350F"/>
<path d="M267.764 131.273H266V129.473H267.764V131.273Z" fill="#78350F"/>
<path d="M267.764 149.752H266V147.952H267.764V149.752Z" fill="#78350F"/>
<path d="M267.764 168.232H266V166.432H267.764V168.232Z" fill="#78350F"/>
<path d="M267.764 186.711H266V184.911H267.764V186.711Z" fill="#78350F"/>
<path d="M267.764 205.191H266V203.391H267.764V205.191Z" fill="#78350F"/>
<path d="M267.764 223.67H266V221.87H267.764V223.67Z" fill="#78350F"/>
<path d="M267.764 242.15H266V240.35H267.764V242.15Z" fill="#78350F"/>
<path d="M267.764 260.629H266V258.829H267.764V260.629Z" fill="#78350F"/>
<path d="M267.764 279.109H266V277.309H267.764V279.109Z" fill="#78350F"/>
<path d="M267.764 297.589H266V295.788H267.764V297.589Z" fill="#78350F"/>
<path d="M267.764 316.068H266V314.268H267.764V316.068Z" fill="#78350F"/>
<path d="M267.764 334.548H266V332.748H267.764V334.548Z" fill="#78350F"/>
<path d="M267.764 353.027H266V351.227H267.764V353.027Z" fill="#78350F"/>
<path d="M267.764 371.507H266V369.707H267.764V371.507Z" fill="#78350F"/>
<path d="M267.764 389.986H266V388.186H267.764V389.986Z" fill="#78350F"/>
<path d="M267.764 408.466H266V406.666H267.764V408.466Z" fill="#78350F"/>
<path d="M248.764 1.91601H247V0.116012L248.764 0.116012V1.91601Z" fill="#78350F"/>
<path d="M248.764 20.3955H247V18.5955H248.764V20.3955Z" fill="#78350F"/>
<path d="M248.764 38.8751H247V37.0751H248.764V38.8751Z" fill="#78350F"/>
<path d="M248.764 57.3546H247V55.5546H248.764V57.3546Z" fill="#78350F"/>
<path d="M248.764 75.8341H247V74.0341H248.764V75.8341Z" fill="#78350F"/>
<path d="M248.764 94.3137H247V92.5137H248.764V94.3137Z" fill="#78350F"/>
<path d="M248.764 112.793H247V110.993H248.764V112.793Z" fill="#78350F"/>
<path d="M248.764 131.273H247V129.473H248.764V131.273Z" fill="#78350F"/>
<path d="M248.764 149.752H247V147.952H248.764V149.752Z" fill="#78350F"/>
<path d="M248.764 168.232H247V166.432H248.764V168.232Z" fill="#78350F"/>
<path d="M248.764 186.711H247V184.911H248.764V186.711Z" fill="#78350F"/>
<path d="M248.764 205.191H247V203.391H248.764V205.191Z" fill="#78350F"/>
<path d="M248.764 223.67H247V221.87H248.764V223.67Z" fill="#78350F"/>
<path d="M248.764 242.15H247V240.35H248.764V242.15Z" fill="#78350F"/>
<path d="M248.764 260.629H247V258.829H248.764V260.629Z" fill="#78350F"/>
<path d="M248.764 279.109H247V277.309H248.764V279.109Z" fill="#78350F"/>
<path d="M248.764 297.589H247V295.788H248.764V297.589Z" fill="#78350F"/>
<path d="M248.764 316.068H247V314.268H248.764V316.068Z" fill="#78350F"/>
<path d="M248.764 334.548H247V332.748H248.764V334.548Z" fill="#78350F"/>
<path d="M248.764 353.027H247V351.227H248.764V353.027Z" fill="#78350F"/>
<path d="M248.764 371.507H247V369.707H248.764V371.507Z" fill="#78350F"/>
<path d="M248.764 389.986H247V388.186H248.764V389.986Z" fill="#78350F"/>
<path d="M248.764 408.466H247V406.666H248.764V408.466Z" fill="#78350F"/>
<path d="M229.764 1.91601H228V0.116011L229.764 0.116011V1.91601Z" fill="#78350F"/>
<path d="M229.764 20.3955H228V18.5955H229.764V20.3955Z" fill="#78350F"/>
<path d="M229.764 38.8751H228V37.0751H229.764V38.8751Z" fill="#78350F"/>
<path d="M229.764 57.3546H228V55.5546H229.764V57.3546Z" fill="#78350F"/>
<path d="M229.764 75.8341H228V74.0341H229.764V75.8341Z" fill="#78350F"/>
<path d="M229.764 94.3137H228V92.5137H229.764V94.3137Z" fill="#78350F"/>
<path d="M229.764 112.793H228V110.993H229.764V112.793Z" fill="#78350F"/>
<path d="M229.764 131.273H228V129.473H229.764V131.273Z" fill="#78350F"/>
<path d="M229.764 149.752H228V147.952H229.764V149.752Z" fill="#78350F"/>
<path d="M229.764 168.232H228V166.432H229.764V168.232Z" fill="#78350F"/>
<path d="M229.764 186.711H228V184.911H229.764V186.711Z" fill="#78350F"/>
<path d="M229.764 205.191H228V203.391H229.764V205.191Z" fill="#78350F"/>
<path d="M229.764 223.67H228V221.87H229.764V223.67Z" fill="#78350F"/>
<path d="M229.764 242.15H228V240.35H229.764V242.15Z" fill="#78350F"/>
<path d="M229.764 260.629H228V258.829H229.764V260.629Z" fill="#78350F"/>
<path d="M229.764 279.109H228V277.309H229.764V279.109Z" fill="#78350F"/>
<path d="M229.764 297.589H228V295.788H229.764V297.589Z" fill="#78350F"/>
<path d="M229.764 316.068H228V314.268H229.764V316.068Z" fill="#78350F"/>
<path d="M229.764 334.548H228V332.748H229.764V334.548Z" fill="#78350F"/>
<path d="M229.764 353.027H228V351.227H229.764V353.027Z" fill="#78350F"/>
<path d="M229.764 371.507H228V369.707H229.764V371.507Z" fill="#78350F"/>
<path d="M229.764 389.986H228V388.186H229.764V389.986Z" fill="#78350F"/>
<path d="M229.764 408.466H228V406.666H229.764V408.466Z" fill="#78350F"/>
<path d="M210.764 1.91601H209V0.11601L210.764 0.11601V1.91601Z" fill="#78350F"/>
<path d="M210.764 20.3955H209V18.5955H210.764V20.3955Z" fill="#78350F"/>
<path d="M210.764 38.8751H209V37.0751H210.764V38.8751Z" fill="#78350F"/>
<path d="M210.764 57.3546H209V55.5546H210.764V57.3546Z" fill="#78350F"/>
<path d="M210.764 75.8341H209V74.0341H210.764V75.8341Z" fill="#78350F"/>
<path d="M210.764 94.3137H209V92.5137H210.764V94.3137Z" fill="#78350F"/>
<path d="M210.764 112.793H209V110.993H210.764V112.793Z" fill="#78350F"/>
<path d="M210.764 131.273H209V129.473H210.764V131.273Z" fill="#78350F"/>
<path d="M210.764 149.752H209V147.952H210.764V149.752Z" fill="#78350F"/>
<path d="M210.764 168.232H209V166.432H210.764V168.232Z" fill="#78350F"/>
<path d="M210.764 186.711H209V184.911H210.764V186.711Z" fill="#78350F"/>
<path d="M210.764 205.191H209V203.391H210.764V205.191Z" fill="#78350F"/>
<path d="M210.764 223.67H209V221.87H210.764V223.67Z" fill="#78350F"/>
<path d="M210.764 242.15H209V240.35H210.764V242.15Z" fill="#78350F"/>
<path d="M210.764 260.629H209V258.829H210.764V260.629Z" fill="#78350F"/>
<path d="M210.764 279.109H209V277.309H210.764V279.109Z" fill="#78350F"/>
<path d="M210.764 297.589H209V295.788H210.764V297.589Z" fill="#78350F"/>
<path d="M210.764 316.068H209V314.268H210.764V316.068Z" fill="#78350F"/>
<path d="M210.764 334.548H209V332.748H210.764V334.548Z" fill="#78350F"/>
<path d="M210.764 353.027H209V351.227H210.764V353.027Z" fill="#78350F"/>
<path d="M210.764 371.507H209V369.707H210.764V371.507Z" fill="#78350F"/>
<path d="M210.764 389.986H209V388.186H210.764V389.986Z" fill="#78350F"/>
<path d="M210.764 408.466H209V406.666H210.764V408.466Z" fill="#78350F"/>
<path d="M191.764 1.91601H190V0.116009L191.764 0.11601V1.91601Z" fill="#78350F"/>
<path d="M191.764 20.3955H190V18.5955H191.764V20.3955Z" fill="#78350F"/>
<path d="M191.764 38.8751H190V37.0751H191.764V38.8751Z" fill="#78350F"/>
<path d="M191.764 57.3546H190V55.5546H191.764V57.3546Z" fill="#78350F"/>
<path d="M191.764 75.8341H190V74.0341H191.764V75.8341Z" fill="#78350F"/>
<path d="M191.764 94.3137H190V92.5137H191.764V94.3137Z" fill="#78350F"/>
<path d="M191.764 112.793H190V110.993H191.764V112.793Z" fill="#78350F"/>
<path d="M191.764 131.273H190V129.473H191.764V131.273Z" fill="#78350F"/>
<path d="M191.764 149.752H190V147.952H191.764V149.752Z" fill="#78350F"/>
<path d="M191.764 168.232H190V166.432H191.764V168.232Z" fill="#78350F"/>
<path d="M191.764 186.711H190V184.911H191.764V186.711Z" fill="#78350F"/>
<path d="M191.764 205.191H190V203.391H191.764V205.191Z" fill="#78350F"/>
<path d="M191.764 223.67H190V221.87H191.764V223.67Z" fill="#78350F"/>
<path d="M191.764 242.15H190V240.35H191.764V242.15Z" fill="#78350F"/>
<path d="M191.764 260.629H190V258.829H191.764V260.629Z" fill="#78350F"/>
<path d="M191.764 279.109H190V277.309H191.764V279.109Z" fill="#78350F"/>
<path d="M191.764 297.589H190V295.788H191.764V297.589Z" fill="#78350F"/>
<path d="M191.764 316.068H190V314.268H191.764V316.068Z" fill="#78350F"/>
<path d="M191.764 334.548H190V332.748H191.764V334.548Z" fill="#78350F"/>
<path d="M191.764 353.027H190V351.227H191.764V353.027Z" fill="#78350F"/>
<path d="M191.764 371.507H190V369.707H191.764V371.507Z" fill="#78350F"/>
<path d="M191.764 389.986H190V388.186H191.764V389.986Z" fill="#78350F"/>
<path d="M191.764 408.466H190V406.666H191.764V408.466Z" fill="#78350F"/>
<path d="M172.764 1.91601H171V0.116009L172.764 0.116009V1.91601Z" fill="#78350F"/>
<path d="M172.764 20.3955H171V18.5955H172.764V20.3955Z" fill="#78350F"/>
<path d="M172.764 38.8751H171V37.0751H172.764V38.8751Z" fill="#78350F"/>
<path d="M172.764 57.3546H171V55.5546H172.764V57.3546Z" fill="#78350F"/>
<path d="M172.764 75.8341H171V74.0341H172.764V75.8341Z" fill="#78350F"/>
<path d="M172.764 94.3137H171V92.5137H172.764V94.3137Z" fill="#78350F"/>
<path d="M172.764 112.793H171V110.993H172.764V112.793Z" fill="#78350F"/>
<path d="M172.764 131.273H171V129.473H172.764V131.273Z" fill="#78350F"/>
<path d="M172.764 149.752H171V147.952H172.764V149.752Z" fill="#78350F"/>
<path d="M172.764 168.232H171V166.432H172.764V168.232Z" fill="#78350F"/>
<path d="M172.764 186.711H171V184.911H172.764V186.711Z" fill="#78350F"/>
<path d="M172.764 205.191H171V203.391H172.764V205.191Z" fill="#78350F"/>
<path d="M172.764 223.67H171V221.87H172.764V223.67Z" fill="#78350F"/>
<path d="M172.764 242.15H171V240.35H172.764V242.15Z" fill="#78350F"/>
<path d="M172.764 260.629H171V258.829H172.764V260.629Z" fill="#78350F"/>
<path d="M172.764 279.109H171V277.309H172.764V279.109Z" fill="#78350F"/>
<path d="M172.764 297.589H171V295.788H172.764V297.589Z" fill="#78350F"/>
<path d="M172.764 316.068H171V314.268H172.764V316.068Z" fill="#78350F"/>
<path d="M172.764 334.548H171V332.748H172.764V334.548Z" fill="#78350F"/>
<path d="M172.764 353.027H171V351.227H172.764V353.027Z" fill="#78350F"/>
<path d="M172.764 371.507H171V369.707H172.764V371.507Z" fill="#78350F"/>
<path d="M172.764 389.986H171V388.186H172.764V389.986Z" fill="#78350F"/>
<path d="M172.764 408.466H171V406.666H172.764V408.466Z" fill="#78350F"/>
<path d="M153.764 1.91601H152V0.116008L153.764 0.116008V1.91601Z" fill="#78350F"/>
<path d="M153.764 20.3955H152V18.5955L153.764 18.5955V20.3955Z" fill="#78350F"/>
<path d="M153.764 38.8751H152V37.0751H153.764V38.8751Z" fill="#78350F"/>
<path d="M153.764 57.3546H152V55.5546H153.764V57.3546Z" fill="#78350F"/>
<path d="M153.764 75.8341H152V74.0341H153.764V75.8341Z" fill="#78350F"/>
<path d="M153.764 94.3137H152V92.5137H153.764V94.3137Z" fill="#78350F"/>
<path d="M153.764 112.793H152V110.993H153.764V112.793Z" fill="#78350F"/>
<path d="M153.764 131.273H152V129.473H153.764V131.273Z" fill="#78350F"/>
<path d="M153.764 149.752H152V147.952H153.764V149.752Z" fill="#78350F"/>
<path d="M153.764 168.232H152V166.432H153.764V168.232Z" fill="#78350F"/>
<path d="M153.764 186.711H152V184.911H153.764V186.711Z" fill="#78350F"/>
<path d="M153.764 205.191H152V203.391H153.764V205.191Z" fill="#78350F"/>
<path d="M153.764 223.67H152V221.87H153.764V223.67Z" fill="#78350F"/>
<path d="M153.764 242.15H152V240.35H153.764V242.15Z" fill="#78350F"/>
<path d="M153.764 260.629H152V258.829H153.764V260.629Z" fill="#78350F"/>
<path d="M153.764 279.109H152V277.309H153.764V279.109Z" fill="#78350F"/>
<path d="M153.764 297.589H152V295.788H153.764V297.589Z" fill="#78350F"/>
<path d="M153.764 316.068H152V314.268H153.764V316.068Z" fill="#78350F"/>
<path d="M153.764 334.548H152V332.748H153.764V334.548Z" fill="#78350F"/>
<path d="M153.764 353.027H152V351.227H153.764V353.027Z" fill="#78350F"/>
<path d="M153.764 371.507H152V369.707H153.764V371.507Z" fill="#78350F"/>
<path d="M153.764 389.986H152V388.186H153.764V389.986Z" fill="#78350F"/>
<path d="M153.764 408.466H152V406.666H153.764V408.466Z" fill="#78350F"/>
<path d="M134.764 1.91601H133V0.116007L134.764 0.116007V1.91601Z" fill="#78350F"/>
<path d="M134.764 20.3955H133V18.5955H134.764V20.3955Z" fill="#78350F"/>
<path d="M134.764 38.8751H133V37.0751H134.764V38.8751Z" fill="#78350F"/>
<path d="M134.764 57.3546H133V55.5546H134.764V57.3546Z" fill="#78350F"/>
<path d="M134.764 75.8341H133V74.0341H134.764V75.8341Z" fill="#78350F"/>
<path d="M134.764 94.3137H133V92.5137H134.764V94.3137Z" fill="#78350F"/>
<path d="M134.764 112.793H133V110.993H134.764V112.793Z" fill="#78350F"/>
<path d="M134.764 131.273H133V129.473H134.764V131.273Z" fill="#78350F"/>
<path d="M134.764 149.752H133V147.952H134.764V149.752Z" fill="#78350F"/>
<path d="M134.764 168.232H133V166.432H134.764V168.232Z" fill="#78350F"/>
<path d="M134.764 186.711H133V184.911H134.764V186.711Z" fill="#78350F"/>
<path d="M134.764 205.191H133V203.391H134.764V205.191Z" fill="#78350F"/>
<path d="M134.764 223.67H133V221.87H134.764V223.67Z" fill="#78350F"/>
<path d="M134.764 242.15H133V240.35H134.764V242.15Z" fill="#78350F"/>
<path d="M134.764 260.629H133V258.829H134.764V260.629Z" fill="#78350F"/>
<path d="M134.764 279.109H133V277.309H134.764V279.109Z" fill="#78350F"/>
<path d="M134.764 297.589H133V295.788H134.764V297.589Z" fill="#78350F"/>
<path d="M134.764 316.068H133V314.268H134.764V316.068Z" fill="#78350F"/>
<path d="M134.764 334.548H133V332.748H134.764V334.548Z" fill="#78350F"/>
<path d="M134.764 353.027H133V351.227H134.764V353.027Z" fill="#78350F"/>
<path d="M134.764 371.507H133V369.707H134.764V371.507Z" fill="#78350F"/>
<path d="M134.764 389.986H133V388.186H134.764V389.986Z" fill="#78350F"/>
<path d="M134.764 408.466H133V406.666H134.764V408.466Z" fill="#78350F"/>
<path d="M115.764 1.91601L114 1.91601V0.116006L115.764 0.116006V1.91601Z" fill="#78350F"/>
<path d="M115.764 20.3955H114V18.5955H115.764V20.3955Z" fill="#78350F"/>
<path d="M115.764 38.8751L114 38.8751V37.0751H115.764V38.8751Z" fill="#78350F"/>
<path d="M115.764 57.3546L114 57.3546V55.5546H115.764V57.3546Z" fill="#78350F"/>
<path d="M115.764 75.8341H114V74.0341H115.764V75.8341Z" fill="#78350F"/>
<path d="M115.764 94.3137H114V92.5137H115.764V94.3137Z" fill="#78350F"/>
<path d="M115.764 112.793H114V110.993H115.764V112.793Z" fill="#78350F"/>
<path d="M115.764 131.273H114V129.473H115.764V131.273Z" fill="#78350F"/>
<path d="M115.764 149.752H114V147.952H115.764V149.752Z" fill="#78350F"/>
<path d="M115.764 168.232H114V166.432H115.764V168.232Z" fill="#78350F"/>
<path d="M115.764 186.711H114V184.911H115.764V186.711Z" fill="#78350F"/>
<path d="M115.764 205.191H114V203.391H115.764V205.191Z" fill="#78350F"/>
<path d="M115.764 223.67H114V221.87H115.764V223.67Z" fill="#78350F"/>
<path d="M115.764 242.15H114V240.35H115.764V242.15Z" fill="#78350F"/>
<path d="M115.764 260.629H114V258.829H115.764V260.629Z" fill="#78350F"/>
<path d="M115.764 279.109H114V277.309H115.764V279.109Z" fill="#78350F"/>
<path d="M115.764 297.589H114V295.788H115.764V297.589Z" fill="#78350F"/>
<path d="M115.764 316.068H114V314.268H115.764V316.068Z" fill="#78350F"/>
<path d="M115.764 334.548H114V332.748H115.764V334.548Z" fill="#78350F"/>
<path d="M115.764 353.027H114V351.227H115.764V353.027Z" fill="#78350F"/>
<path d="M115.764 371.507H114V369.707H115.764V371.507Z" fill="#78350F"/>
<path d="M115.764 389.986H114V388.186H115.764V389.986Z" fill="#78350F"/>
<path d="M115.764 408.466H114V406.666H115.764V408.466Z" fill="#78350F"/>
<path d="M96.764 1.91601L95 1.91601V0.116005L96.764 0.116005V1.91601Z" fill="#78350F"/>
<path d="M96.764 20.3955H95V18.5955H96.764V20.3955Z" fill="#78350F"/>
<path d="M96.764 38.8751H95V37.0751H96.764V38.8751Z" fill="#78350F"/>
<path d="M96.764 57.3546H95V55.5546H96.764V57.3546Z" fill="#78350F"/>
<path d="M96.764 75.8341H95V74.0341H96.764V75.8341Z" fill="#78350F"/>
<path d="M96.764 94.3137H95V92.5137H96.764V94.3137Z" fill="#78350F"/>
<path d="M96.764 112.793H95V110.993H96.764V112.793Z" fill="#78350F"/>
<path d="M96.764 131.273H95V129.473H96.764V131.273Z" fill="#78350F"/>
<path d="M96.764 149.752H95V147.952H96.764V149.752Z" fill="#78350F"/>
<path d="M96.764 168.232H95V166.432H96.764V168.232Z" fill="#78350F"/>
<path d="M96.764 186.711H95V184.911H96.764V186.711Z" fill="#78350F"/>
<path d="M96.764 205.191H95V203.391H96.764V205.191Z" fill="#78350F"/>
<path d="M96.764 223.67H95V221.87H96.764V223.67Z" fill="#78350F"/>
<path d="M96.764 242.15H95V240.35H96.764V242.15Z" fill="#78350F"/>
<path d="M96.764 260.629H95V258.829H96.764V260.629Z" fill="#78350F"/>
<path d="M96.764 279.109H95V277.309H96.764V279.109Z" fill="#78350F"/>
<path d="M96.764 297.589H95V295.788H96.764V297.589Z" fill="#78350F"/>
<path d="M96.764 316.068H95V314.268H96.764V316.068Z" fill="#78350F"/>
<path d="M96.764 334.548H95V332.748H96.764V334.548Z" fill="#78350F"/>
<path d="M96.764 353.027H95V351.227H96.764V353.027Z" fill="#78350F"/>
<path d="M96.764 371.507H95V369.707H96.764V371.507Z" fill="#78350F"/>
<path d="M96.764 389.986H95V388.186H96.764V389.986Z" fill="#78350F"/>
<path d="M96.764 408.466H95V406.666H96.764V408.466Z" fill="#78350F"/>
<path d="M77.764 1.916L76 1.916V0.116004L77.764 0.116005V1.916Z" fill="#78350F"/>
<path d="M77.764 20.3955H76V18.5955H77.764V20.3955Z" fill="#78350F"/>
<path d="M77.764 38.8751H76V37.0751H77.764V38.8751Z" fill="#78350F"/>
<path d="M77.764 57.3546H76V55.5546H77.764V57.3546Z" fill="#78350F"/>
<path d="M77.764 75.8341H76V74.0341H77.764V75.8341Z" fill="#78350F"/>
<path d="M77.764 94.3137H76V92.5137H77.764V94.3137Z" fill="#78350F"/>
<path d="M77.764 112.793H76V110.993H77.764V112.793Z" fill="#78350F"/>
<path d="M77.764 131.273H76V129.473H77.764V131.273Z" fill="#78350F"/>
<path d="M77.764 149.752H76V147.952H77.764V149.752Z" fill="#78350F"/>
<path d="M77.764 168.232H76V166.432H77.764V168.232Z" fill="#78350F"/>
<path d="M77.764 186.711H76V184.911H77.764V186.711Z" fill="#78350F"/>
<path d="M77.764 205.191H76V203.391H77.764V205.191Z" fill="#78350F"/>
<path d="M77.764 223.67H76V221.87H77.764V223.67Z" fill="#78350F"/>
<path d="M77.764 242.15H76V240.35H77.764V242.15Z" fill="#78350F"/>
<path d="M77.764 260.629H76V258.829H77.764V260.629Z" fill="#78350F"/>
<path d="M77.764 279.109H76V277.309H77.764V279.109Z" fill="#78350F"/>
<path d="M77.764 297.589H76V295.788H77.764V297.589Z" fill="#78350F"/>
<path d="M77.764 316.068H76V314.268H77.764V316.068Z" fill="#78350F"/>
<path d="M77.764 334.548H76V332.748H77.764V334.548Z" fill="#78350F"/>
<path d="M77.764 353.027H76V351.227H77.764V353.027Z" fill="#78350F"/>
<path d="M77.764 371.507H76V369.707H77.764V371.507Z" fill="#78350F"/>
<path d="M77.764 389.986H76V388.186H77.764V389.986Z" fill="#78350F"/>
<path d="M77.764 408.466H76V406.666H77.764V408.466Z" fill="#78350F"/>
<path d="M58.764 1.916L57 1.916V0.116004L58.764 0.116004V1.916Z" fill="#78350F"/>
<path d="M58.764 20.3955H57V18.5955H58.764L58.764 20.3955Z" fill="#78350F"/>
<path d="M58.764 38.8751H57V37.0751H58.764V38.8751Z" fill="#78350F"/>
<path d="M58.764 57.3546H57V55.5546H58.764V57.3546Z" fill="#78350F"/>
<path d="M58.764 75.8341H57V74.0341H58.764V75.8341Z" fill="#78350F"/>
<path d="M58.764 94.3137H57V92.5137H58.764V94.3137Z" fill="#78350F"/>
<path d="M58.764 112.793H57V110.993H58.764V112.793Z" fill="#78350F"/>
<path d="M58.764 131.273H57V129.473H58.764V131.273Z" fill="#78350F"/>
<path d="M58.764 149.752H57V147.952H58.764V149.752Z" fill="#78350F"/>
<path d="M58.764 168.232H57V166.432H58.764V168.232Z" fill="#78350F"/>
<path d="M58.764 186.711H57V184.911H58.764V186.711Z" fill="#78350F"/>
<path d="M58.764 205.191H57V203.391H58.764V205.191Z" fill="#78350F"/>
<path d="M58.764 223.67H57V221.87H58.764V223.67Z" fill="#78350F"/>
<path d="M58.764 242.15H57V240.35H58.764V242.15Z" fill="#78350F"/>
<path d="M58.764 260.629H57V258.829H58.764V260.629Z" fill="#78350F"/>
<path d="M58.764 279.109H57L57 277.309H58.764V279.109Z" fill="#78350F"/>
<path d="M58.764 297.588H57V295.788H58.764V297.588Z" fill="#78350F"/>
<path d="M58.764 316.068H57V314.268H58.764V316.068Z" fill="#78350F"/>
<path d="M58.764 334.548H57V332.748H58.764V334.548Z" fill="#78350F"/>
<path d="M58.764 353.027H57V351.227H58.764V353.027Z" fill="#78350F"/>
<path d="M58.764 371.507H57V369.707H58.764V371.507Z" fill="#78350F"/>
<path d="M58.764 389.986H57V388.186H58.764V389.986Z" fill="#78350F"/>
<path d="M58.764 408.466H57V406.666H58.764V408.466Z" fill="#78350F"/>
<path d="M39.764 1.916L38 1.916V0.116003L39.764 0.116003V1.916Z" fill="#78350F"/>
<path d="M39.764 20.3955H38V18.5955H39.764L39.764 20.3955Z" fill="#78350F"/>
<path d="M39.764 38.8751H38V37.0751H39.764V38.8751Z" fill="#78350F"/>
<path d="M39.764 57.3546H38V55.5546H39.764V57.3546Z" fill="#78350F"/>
<path d="M39.764 75.8341H38V74.0341H39.764V75.8341Z" fill="#78350F"/>
<path d="M39.764 94.3137H38V92.5137H39.764V94.3137Z" fill="#78350F"/>
<path d="M39.764 112.793H38V110.993H39.764V112.793Z" fill="#78350F"/>
<path d="M39.764 131.273H38V129.473H39.764V131.273Z" fill="#78350F"/>
<path d="M39.764 149.752H38V147.952H39.764V149.752Z" fill="#78350F"/>
<path d="M39.764 168.232H38V166.432H39.764V168.232Z" fill="#78350F"/>
<path d="M39.764 186.711H38V184.911H39.764V186.711Z" fill="#78350F"/>
<path d="M39.764 205.191H38V203.391H39.764V205.191Z" fill="#78350F"/>
<path d="M39.764 223.67H38V221.87H39.764V223.67Z" fill="#78350F"/>
<path d="M39.764 242.15H38V240.35H39.764V242.15Z" fill="#78350F"/>
<path d="M39.764 260.629H38V258.829H39.764V260.629Z" fill="#78350F"/>
<path d="M39.764 279.109H38L38 277.309H39.764V279.109Z" fill="#78350F"/>
<path d="M39.764 297.588H38V295.788H39.764V297.588Z" fill="#78350F"/>
<path d="M39.764 316.068H38V314.268H39.764V316.068Z" fill="#78350F"/>
<path d="M39.764 334.548H38V332.748H39.764V334.548Z" fill="#78350F"/>
<path d="M39.764 353.027H38V351.227H39.764V353.027Z" fill="#78350F"/>
<path d="M39.764 371.507H38V369.707H39.764V371.507Z" fill="#78350F"/>
<path d="M39.764 389.986H38V388.186H39.764V389.986Z" fill="#78350F"/>
<path d="M39.764 408.466H38V406.666H39.764V408.466Z" fill="#78350F"/>
<path d="M20.764 1.916L19 1.916V0.116002L20.764 0.116002V1.916Z" fill="#78350F"/>
<path d="M20.764 20.3955H19V18.5955H20.764V20.3955Z" fill="#78350F"/>
<path d="M20.764 38.8751H19L19 37.0751H20.764V38.8751Z" fill="#78350F"/>
<path d="M20.764 57.3546H19V55.5546H20.764V57.3546Z" fill="#78350F"/>
<path d="M20.764 75.8341H19V74.0341H20.764V75.8341Z" fill="#78350F"/>
<path d="M20.764 94.3137H19V92.5137H20.764V94.3137Z" fill="#78350F"/>
<path d="M20.764 112.793H19V110.993H20.764V112.793Z" fill="#78350F"/>
<path d="M20.764 131.273H19V129.473H20.764V131.273Z" fill="#78350F"/>
<path d="M20.764 149.752H19V147.952H20.764V149.752Z" fill="#78350F"/>
<path d="M20.764 168.232H19V166.432H20.764V168.232Z" fill="#78350F"/>
<path d="M20.764 186.711H19V184.911H20.764V186.711Z" fill="#78350F"/>
<path d="M20.764 205.191H19V203.391H20.764V205.191Z" fill="#78350F"/>
<path d="M20.764 223.67H19V221.87H20.764V223.67Z" fill="#78350F"/>
<path d="M20.764 242.15H19V240.35H20.764V242.15Z" fill="#78350F"/>
<path d="M20.764 260.629H19V258.829H20.764L20.764 260.629Z" fill="#78350F"/>
<path d="M20.764 279.109H19V277.309H20.764V279.109Z" fill="#78350F"/>
<path d="M20.764 297.588H19V295.788H20.764V297.588Z" fill="#78350F"/>
<path d="M20.764 316.068H19V314.268H20.764V316.068Z" fill="#78350F"/>
<path d="M20.764 334.548H19V332.748H20.764V334.548Z" fill="#78350F"/>
<path d="M20.764 353.027H19V351.227H20.764V353.027Z" fill="#78350F"/>
<path d="M20.764 371.507H19V369.707H20.764V371.507Z" fill="#78350F"/>
<path d="M20.764 389.986H19V388.186H20.764V389.986Z" fill="#78350F"/>
<path d="M20.764 408.466H19V406.666H20.764V408.466Z" fill="#78350F"/>
<path d="M1.76402 1.916L1.77709e-05 1.916L1.78495e-05 0.116001L1.76402 0.116001L1.76402 1.916Z" fill="#78350F"/>
<path d="M1.76402 20.3955H1.69631e-05L1.70418e-05 18.5955H1.76402V20.3955Z" fill="#78350F"/>
<path d="M1.76402 38.8751H1.61553e-05L1.6234e-05 37.0751H1.76402V38.8751Z" fill="#78350F"/>
<path d="M1.76402 57.3546H1.53476e-05L1.54262e-05 55.5546H1.76402L1.76402 57.3546Z" fill="#78350F"/>
<path d="M1.76401 75.8341H1.45398e-05L1.46185e-05 74.0341H1.76401L1.76401 75.8341Z" fill="#78350F"/>
<path d="M1.76401 94.3137H1.3732e-05L1.38107e-05 92.5137H1.76401L1.76401 94.3137Z" fill="#78350F"/>
<path d="M1.76401 112.793H1.29243e-05L1.30029e-05 110.993H1.76401V112.793Z" fill="#78350F"/>
<path d="M1.76401 131.273H1.21165e-05L1.21952e-05 129.473H1.76401L1.76401 131.273Z" fill="#78350F"/>
<path d="M1.76401 149.752H1.13087e-05L1.13874e-05 147.952H1.76401L1.76401 149.752Z" fill="#78350F"/>
<path d="M1.76401 168.232H1.0501e-05L1.05796e-05 166.432H1.76401L1.76401 168.232Z" fill="#78350F"/>
<path d="M1.76401 186.711H9.69319e-06L9.77187e-06 184.911H1.76401V186.711Z" fill="#78350F"/>
<path d="M1.76401 205.191H8.88543e-06L8.96411e-06 203.391H1.76401V205.191Z" fill="#78350F"/>
<path d="M1.76401 223.67H8.07766e-06L8.15634e-06 221.87H1.76401L1.76401 223.67Z" fill="#78350F"/>
<path d="M1.76401 242.15H7.26989e-06L7.34857e-06 240.35H1.76401L1.76401 242.15Z" fill="#78350F"/>
<path d="M1.76401 260.629H6.46213e-06L6.54081e-06 258.829H1.76401L1.76401 260.629Z" fill="#78350F"/>
<path d="M1.76401 279.109H5.65436e-06L5.73304e-06 277.309H1.76401V279.109Z" fill="#78350F"/>
<path d="M1.764 297.588H4.8466e-06L4.92528e-06 295.788H1.76401L1.764 297.588Z" fill="#78350F"/>
<path d="M1.764 316.068H4.03883e-06L4.11751e-06 314.268H1.764L1.764 316.068Z" fill="#78350F"/>
<path d="M1.764 334.548H3.23106e-06L3.30974e-06 332.748H1.764L1.764 334.548Z" fill="#78350F"/>
<path d="M1.764 353.027H2.4233e-06L2.50198e-06 351.227H1.764V353.027Z" fill="#78350F"/>
<path d="M1.764 371.507H1.61553e-06L1.69421e-06 369.707H1.764V371.507Z" fill="#78350F"/>
<path d="M1.764 389.986H8.07766e-07L8.86446e-07 388.186H1.764L1.764 389.986Z" fill="#78350F"/>
<path d="M1.764 408.466H0L7.86808e-08 406.666H1.764L1.764 408.466Z" fill="#78350F"/>
</svg>
